<svg xmlns="http://www.w3.org/2000/svg" xml:space="preserve" viewBox="0 0 48 48" id="happy">
  <symbol id="New_Symbol_14" viewBox="-6.5 -6.5 13 13">
    <path fill="#FFD4C3" stroke="#504B46" stroke-linecap="round" stroke-linejoin="round" stroke-miterlimit="10" d="M0-6c2.2 0 4.1 1.5 4.7 3.5C6.3-2.5 6.4 0 5 0v1c0 2.8-2.2 5-5 5s-5-2.2-5-5V0c-1.4 0-1.3-2.5.2-2.5C-4.1-4.5-2.2-6 0-6z" style="fill:#ffd4c3;stroke:#504b46;stroke-linecap:round;stroke-linejoin:round;stroke-miterlimit:10"></path>
    <circle cx="-1.6" cy="-.1" r=".1" style="fill:#ffc258"></circle>
    <path d="M-1.6.5c-.3 0-.6-.3-.6-.6s.2-.7.6-.7c.3 0 .6.3.6.7s-.3.6-.6.6z" style="fill:#4f4b45"></path>
    <circle cx="1.6" cy="-.1" r=".1" style="fill:#ffc258"></circle>
    <path d="M1.6.5C1.3.5 1 .2 1-.1s.3-.6.6-.6.6.3.6.6-.2.6-.6.6z" style="fill:#4f4b45"></path>
    <circle cx="-3" cy="-1.5" r=".5" style="fill:#fabfa5"></circle>
    <circle cx="3" cy="-1.5" r=".5" style="fill:#fabfa5"></circle>
    <path fill="none" stroke="#504B46" stroke-linecap="round" stroke-linejoin="round" stroke-miterlimit="10" d="M-1.2-3c.8-.5 1.7-.5 2.5 0" style="fill:none;stroke:#504b46;stroke-linecap:round;stroke-linejoin:round;stroke-miterlimit:10"></path>
  </symbol>
  <g id="Icons">
    <g id="XMLID_6_">
      <circle id="XMLID_7617_" cx="24" cy="21.3" r="20" fill="#FFE500" style="fill:#ffe500"></circle>
      <path id="XMLID_7614_" fill="#EBCB00" d="M24 1.3c-11 0-20 9-20 20s9 20 20 20 20-9 20-20-9-20-20-20zm0 37c-10.1 0-18.2-8.2-18.2-18.2C5.8 10 13.9 1.8 24 1.8S42.3 10 42.3 20.1c0 10.1-8.2 18.2-18.3 18.2z" style="fill:#ebcb00"></path>
      <ellipse id="XMLID_7613_" cx="24" cy="5.3" fill="#FFF48C" rx="6" ry="1.5" style="fill:#fff48c"></ellipse>
      <ellipse id="XMLID_7612_" cx="24" cy="45.2" fill="#45413C" opacity=".15" rx="16" ry="1.5" style="opacity:.15;fill:#45413c"></ellipse>
      <circle id="XMLID_7611_" cx="24" cy="21.3" r="20" style="fill:none;stroke:#45413c;stroke-linecap:round;stroke-linejoin:round;stroke-miterlimit:10"></circle>
      <ellipse id="XMLID_7610_" cx="36" cy="26.3" rx="2.5" ry="1.5" style="fill:#ffaa54"></ellipse>
      <ellipse id="XMLID_7609_" cx="12" cy="26.3" rx="2.5" ry="1.5" style="fill:#ffaa54"></ellipse>
      <g id="XMLID_7606_">
        <path id="XMLID_7608_" fill="#FFB0CA" stroke="#45413C" stroke-linecap="round" stroke-linejoin="round" stroke-miterlimit="10" d="M17.9 29.3c-.3 0-.5.1-.7.3-.2.3-.2.5-.2.8.5 3.4 3.5 5.9 7 5.9s6.5-2.5 7-5.9c0-.3 0-.5-.2-.8-.2-.2-.4-.3-.7-.3H17.9z" style="fill:#ffb0ca;stroke:#45413c;stroke-linecap:round;stroke-linejoin:round;stroke-miterlimit:10"></path>
        <path id="XMLID_7607_" fill="#FF87AF" stroke="#45413C" stroke-linecap="round" stroke-linejoin="round" stroke-miterlimit="10" d="M29.6 33.7c-1.4-.8-3.4-1.3-5.6-1.3-2.2 0-4.2.5-5.6 1.3 1.3 1.7 3.3 2.7 5.6 2.7s4.3-1.1 5.6-2.7z" style="fill:#ff87af;stroke:#45413c;stroke-linecap:round;stroke-linejoin:round;stroke-miterlimit:10"></path>
      </g>
      <path id="XMLID_7605_" d="m36.3 17.8-3.2 1.6c-.7.4-.7 1.4 0 1.8l3.2 1.6" style="fill:none;stroke:#45413c;stroke-linecap:round;stroke-linejoin:round;stroke-miterlimit:10"></path>
      <path id="XMLID_7604_" d="m11.7 17.8 3.2 1.6c.7.4.7 1.4 0 1.8l-3.2 1.6" style="fill:none;stroke:#45413c;stroke-linecap:round;stroke-linejoin:round;stroke-miterlimit:10"></path>
    </g>
  </g>
</svg>
