<svg xmlns="http://www.w3.org/2000/svg" xml:space="preserve" viewBox="0 0 48 48" id="sad">
  <symbol id="New_Symbol_14" viewBox="-6.5 -6.5 13 13">
    <path d="M0-6c2.2 0 4.1 1.5 4.7 3.5C6.3-2.5 6.4 0 5 0v1c0 2.8-2.2 5-5 5s-5-2.2-5-5V0c-1.4 0-1.3-2.5.2-2.5C-4.1-4.5-2.2-6 0-6z" style="fill:#ffd4c3;stroke:#504b46;stroke-linecap:round;stroke-linejoin:round;stroke-miterlimit:10"></path>
    <circle cx="-1.6" cy="-.1" r=".1" style="fill:#ffc258"></circle>
    <path d="M-1.6.5c-.3 0-.6-.3-.6-.6s.2-.7.6-.7c.3 0 .6.3.6.7s-.3.6-.6.6z" style="fill:#4f4b45"></path>
    <circle cx="1.6" cy="-.1" r=".1" style="fill:#ffc258"></circle>
    <path d="M1.6.5C1.3.5 1 .2 1-.1s.3-.6.6-.6.6.3.6.6-.2.6-.6.6z" style="fill:#4f4b45"></path>
    <circle cx="-3" cy="-1.5" r=".5" style="fill:#fabfa5"></circle>
    <circle cx="3" cy="-1.5" r=".5" style="fill:#fabfa5"></circle>
    <path d="M-1.2-3c.8-.5 1.7-.5 2.5 0" style="fill:none;stroke:#504b46;stroke-linecap:round;stroke-linejoin:round;stroke-miterlimit:10"></path>
  </symbol>
  <g id="Icons">
    <g id="XMLID_531_">
      <circle id="XMLID_7072_" cx="24" cy="21.3" r="20" style="fill:#ffe500"></circle>
      <path id="XMLID_7069_" d="M24 1.3c-11 0-20 9-20 20s9 20 20 20 20-9 20-20-9-20-20-20zm0 37C13.9 38.3 5.8 30.1 5.8 20 5.8 10 13.9 1.8 24 1.8S42.2 10 42.2 20c0 10.1-8.1 18.3-18.2 18.3z" style="fill:#ebcb00"></path>
      <ellipse id="XMLID_7068_" cx="24" cy="5.3" rx="6" ry="1.5" style="fill:#fff48c"></ellipse>
      <circle id="XMLID_7067_" cx="24" cy="21.3" r="20" style="fill:none;stroke:#45413c;stroke-linecap:round;stroke-linejoin:round;stroke-miterlimit:10"></circle>
      <path id="XMLID_7066_" d="M19 31.3c1.4-1 3.1-1.5 5-1.5 1.8 0 3.6.6 5 1.5" style="fill:none;stroke:#45413c;stroke-linecap:round;stroke-miterlimit:10"></path>
      <ellipse id="XMLID_7065_" cx="24" cy="45.2" rx="16" ry="1.5" style="opacity:.15;fill:#45413c"></ellipse>
      <circle id="XMLID_7064_" cx="14" cy="21.3" r="1" style="fill:#45413c;stroke:#45413c;stroke-linecap:round;stroke-linejoin:round;stroke-miterlimit:10"></circle>
      <circle id="XMLID_7063_" cx="33.5" cy="21.3" r="1" style="fill:#45413c;stroke:#45413c;stroke-linecap:round;stroke-linejoin:round;stroke-miterlimit:10"></circle>
      <path id="XMLID_7062_" d="M13 17c1.1-.2 2.2-.5 3.4-1.1 1.1-.6 2.1-1.3 2.9-2.1" style="fill:none;stroke:#45413c;stroke-linecap:round;stroke-linejoin:round;stroke-miterlimit:10"></path>
      <path id="XMLID_7061_" d="M34.8 17c-1.1-.2-2.2-.5-3.4-1.1-1.1-.6-2.1-1.3-2.9-2.1" style="fill:none;stroke:#45413c;stroke-linecap:round;stroke-linejoin:round;stroke-miterlimit:10"></path>
      <ellipse id="XMLID_7060_" cx="36" cy="26.3" rx="2.5" ry="1.5" style="fill:#ffaa54"></ellipse>
      <ellipse id="XMLID_7059_" cx="12" cy="26.3" rx="2.5" ry="1.5" style="fill:#ffaa54"></ellipse>
    </g>
  </g>
</svg>
